<?xml version="1.0" standalone="no"?><!DOCTYPE svg PUBLIC "-//W3C//DTD SVG 1.1//EN" "http://www.w3.org/Graphics/SVG/1.1/DTD/svg11.dtd"><svg t="1685970908594" class="icon" viewBox="0 0 1024 1024" version="1.1" xmlns="http://www.w3.org/2000/svg" p-id="4685" xmlns:xlink="http://www.w3.org/1999/xlink" width="200" height="200"><path d="M883.554 111.905S870.83 98.8 866.532 93.5c-4.1-2.767-16.973 6.972-14.706 12.087l18.359 17.058z" fill="#463D2D" p-id="4686"></path><path d="M857.478 135.051s-11.724-12.109-16.022-17.4c-4.1-2.767-16.973 6.973-14.706 12.088l17.359 16.058z" fill="#463D2D" p-id="4687"></path><path d="M835.4 158.4s-16.116-17.543-20.868-23.4c-4.531-3.06-18.762 7.709-16.257 13.365l22.346 21.91z" fill="#463D2D" p-id="4688"></path><path d="M910.021 163.035s11.724 16.076 16.022 21.326c4.1 2.745 16.973-6.916 14.706-11.99l-17.358-19.993zM887.619 185.687s10.724 15.075 15.022 20.325c4.1 2.745 16.973-6.916 14.706-11.989l-16.358-18.994zM861.891 208.162s13.116 17.506 17.868 23.311c4.531 3.035 18.762-7.647 16.257-13.257l-19.346-21.838z" fill="#463D2D" p-id="4689"></path><path d="M783 204c11.234-13.477 9.709-31.631 16-42 29.07-12.438 66.049-34.783 82-61 29.717-14.906 70.705 22.486 56 51 0 0-53.086 40.143-72 78-12.535 5.672-32.8-5.049-45 13z" fill="#F8C19A" p-id="4690"></path><path d="M128 613c36.554-46.109 102.965-48.617 158-72s41.875-128.73 164-88c37.841 13.891 95.684 67.2 116 127 23.2 68.287-19.191 133.273-105 166s-40.353 155.165-146 163c-119.668 8.875-299.8-153.711-187-296z" fill="#F8C19A" p-id="4691"></path><path d="M375 629m-82 0a82 82 0 1 0 164 0 82 82 0 1 0-164 0Z" fill="#FFFFFF" p-id="4692"></path><path d="M376 630m-63 0a63 63 0 1 0 126 0 63 63 0 1 0-126 0Z" fill="#0E223E" p-id="4693"></path><path d="M783.021 203.05l37.872 38.761-343.612 339.344-44.372-47.761z" fill="#201501" p-id="4694"></path><path d="M329.227 771.718a22.447 22.447 0 0 0-8.855-8.52A107.655 107.655 0 0 1 267 735.431c-19.081-18.361-27.994-40.639-29.8-52.266-2.539-4.487-9.575-9.214-9.575-9.214a9.5 9.5 0 1 1 13.175-13.69l101.6 97.767a9.5 9.5 0 0 1-13.173 13.69z" fill="#3E3525" p-id="4695"></path></svg>